<svg width="64.8594" height="16.1195" viewBox="0 0 64.8594 16.1195" fill="none" xmlns="http://www.w3.org/2000/svg">
<path d="M7.49937 0.0176021C11.9251 -0.274145 15.7473 3.09553 16.0327 7.54092C16.3183 11.9863 12.9588 15.8213 8.53239 16.1031C4.113 16.3844 0.301992 13.017 0.0169326 8.5786C-0.268149 4.14023 3.08048 0.308874 7.49937 0.0176021Z" fill="#00A543"/>
<path d="M4.90564 4.96999C6.56702 4.8199 7.46296 6.12767 7.54686 7.63559C7.56239 7.91329 7.53313 8.37357 7.15771 8.40979C6.81929 8.44243 6.44182 8.42617 6.09863 8.4259L3.93192 8.42337C4.10798 9.86325 4.85502 10.112 6.12284 9.81508C6.44258 9.7402 6.72506 9.5355 6.996 9.777C7.14294 10.0128 7.29934 10.485 7.09681 10.724C6.85885 11.0049 6.24113 11.0764 5.89776 11.1226C5.07634 11.2331 4.28938 11.1502 3.61772 10.6089C2.27281 9.52512 2.20372 7.15752 3.23849 5.84555C3.65361 5.31924 4.23658 5.03835 4.90564 4.96999Z" fill="#FEFEFE"/>
<path d="M5.0704 6.23564C5.29453 6.19724 5.61943 6.26478 5.80116 6.40874C6.09198 6.63914 6.16708 6.9883 6.21649 7.33683L5.15637 7.33712L3.96691 7.33744C4.12783 6.67526 4.36016 6.31428 5.0704 6.23564Z" fill="#00A543"/>
<path d="M10.6879 4.96961C12.8321 4.82594 13.7323 6.84611 13.4762 8.66038C13.2329 10.3841 11.9046 11.3942 10.1928 11.1322C9.94142 11.0937 9.7499 11.0753 9.50143 11.0049C8.98357 10.8582 8.8015 10.7274 8.88882 10.1691C8.94149 9.99395 9.0952 9.56312 9.35199 9.64628C10.712 10.0866 11.8943 10.2259 12.118 8.42371L10.0328 8.42439C9.67338 8.425 9.30586 8.43585 8.94846 8.41705C8.49992 8.39345 8.47787 7.90871 8.5078 7.57259C8.56564 6.91982 8.74028 6.27581 9.16002 5.75986C9.56805 5.25835 10.0594 5.03306 10.6879 4.96961Z" fill="#FEFEFE"/>
<path d="M10.7546 6.23496C11.5538 6.15277 11.9051 6.635 12.0827 7.33653L11.2108 7.33728L9.83526 7.33798C9.912 6.7136 10.0905 6.31762 10.7546 6.23496Z" fill="#00A543"/>
<path d="M42.8657 2.64371C43.9965 2.52528 44.8239 2.86943 45.4473 3.82595C45.4847 3.77067 45.5245 3.71636 45.5662 3.6637C46.6009 2.36336 48.934 2.19325 49.9581 3.60023C50.5352 4.39287 50.4971 5.32453 50.4922 6.25162C50.489 6.8712 50.4913 7.50158 50.4906 8.12607L50.4893 9.56642C50.49 10.3633 50.6375 10.6669 49.6431 10.5835C48.9549 10.5259 48.5086 10.8883 48.522 9.87196C48.5285 8.98936 48.5305 8.10677 48.5282 7.22417C48.5288 6.58071 48.6028 5.61175 48.3285 5.04909C47.954 4.28066 46.8358 4.16355 46.2505 4.76351C46.072 4.94637 45.9482 5.17569 45.8932 5.42594C45.8192 5.75634 45.8407 6.55781 45.8411 6.92976L45.8437 9.15816C45.8381 9.47842 45.8648 9.88504 45.8525 10.1935C45.8274 10.8098 44.5828 10.5475 44.1747 10.5805C43.7676 10.6132 43.8666 9.54516 43.8676 9.28672L43.8747 6.98537C43.8777 5.77466 43.9786 4.15799 42.2217 4.42329C40.9925 4.60877 41.1713 6.249 41.1729 7.15646L41.1817 9.42248C41.1869 10.4421 41.3397 10.6446 40.1447 10.6011C39.7506 10.5871 39.1959 10.6803 39.1981 10.1503C39.2069 7.87778 39.2099 5.60357 39.1962 3.33101C39.1955 3.21291 39.2226 3.09122 39.2682 2.98359C39.3636 2.88022 39.5281 2.8197 39.6727 2.81545C40.0014 2.80596 40.6042 2.74839 40.8642 2.96004C40.9746 3.05 40.944 3.49163 40.9427 3.64243C41.4987 3.02252 42.0416 2.74413 42.8657 2.64371Z" fill="#262827"/>
<path d="M3.6729 2.64307C4.80964 2.53119 5.62946 2.85996 6.25756 3.82695C6.7601 3.086 7.46364 2.72289 8.34515 2.63882C10.007 2.46413 11.2354 3.50702 11.2902 5.20318C11.3253 6.28435 11.2989 7.39626 11.2974 8.48167L11.2965 9.63219C11.3003 10.6057 11.3877 10.5786 10.3947 10.5851C9.25327 10.5926 9.33092 10.6568 9.33877 9.45129L9.34564 7.1532C9.34685 6.56666 9.35727 6.08447 9.28372 5.49956C9.1481 4.42135 7.80779 4.00033 7.0692 4.75502C6.89511 4.9297 6.77059 5.1479 6.70848 5.38736C6.62161 5.7351 6.64268 6.58792 6.64268 6.9808L6.6447 9.12481C6.64128 9.42381 6.7204 10.0414 6.63314 10.3015C6.59757 10.4075 6.52748 10.484 6.42625 10.5308C6.2146 10.6286 5.09467 10.642 4.89299 10.5495C4.76563 10.4909 4.71603 10.3388 4.69056 10.2115C4.63323 9.9253 4.67707 9.57658 4.67828 9.28249C4.68196 8.39269 4.79827 5.81786 4.52757 5.16164C4.4052 4.86526 4.19606 4.59963 3.89325 4.47729C3.54613 4.33695 3.08463 4.35984 2.74384 4.50934C2.40226 4.65884 2.17563 5.00102 2.07479 5.35105C1.90011 5.95722 1.99102 8.68646 1.99779 9.50003C1.99975 9.73654 2.05733 10.1739 1.956 10.3865C1.91822 10.4654 1.81207 10.5151 1.73475 10.5423C1.45861 10.6391 0.403918 10.6456 0.158819 10.5089C0.0918525 10.4716 0.0598350 10.3957 0.0393476 10.325C-0.0362829 10.065 0.0208796 8.54514 0.0204888 8.14506L0.0213031 4.65033C0.0215637 4.32615 -0.0324394 3.18643 0.0827651 2.97838C0.347374 2.73237 1.37637 2.74219 1.65579 2.94043C1.79321 3.13245 1.75602 3.40037 1.75175 3.63983C2.32175 3.01927 2.83836 2.75004 3.6729 2.64307Z" fill="#262827"/>
<path d="M24.1026 2.61242C24.1717 2.60555 24.241 2.6013 24.3104 2.59966C26.7259 2.54274 28.0255 4.23171 28.0542 6.51932C28.0571 6.75944 28.0118 7.17326 27.6954 7.18209C27.1528 7.19681 26.607 7.18994 26.0639 7.18961L22.6556 7.1919C23.0149 9.2309 24.47 9.14585 26.1268 8.80661C26.7351 8.6823 26.9548 8.28026 27.324 8.99406C27.4788 9.2852 27.9287 9.9038 27.6575 10.1871C27.4706 10.3821 27.033 10.4825 26.772 10.5463C25.1356 10.9388 23.3364 11.0524 21.9612 9.90086C20.2399 8.45953 20.1418 5.56541 21.5362 3.87285C22.1865 3.08348 23.0897 2.70205 24.1026 2.61242ZM22.7186 5.74141L24.6686 5.74109L26.0601 5.74174C25.8146 4.54902 25.4069 4.22876 24.1786 4.30727C23.2673 4.47575 22.9625 4.8755 22.7186 5.74141Z" fill="#262827"/>
<path d="M15.7354 2.61188C16.6888 2.50491 17.7672 2.79082 18.4786 3.44541C19.2895 4.19159 19.6377 5.25902 19.6809 6.33789C19.6925 6.62674 19.7319 7.16258 19.3202 7.17436C18.7699 7.2002 18.2149 7.18973 17.6634 7.1894L14.292 7.1917C14.6357 9.22873 16.1127 9.14433 17.7576 8.80739C18.3732 8.68144 18.5874 8.28038 18.9616 8.99679C19.3845 9.80971 19.7949 10.1849 18.609 10.4908C16.9404 10.9206 15.0522 11.1074 13.6257 9.92552C12.8276 9.25457 12.3288 8.29183 12.2398 7.25025C12.0184 4.90702 13.2277 2.83335 15.7354 2.61188ZM14.3544 5.74055L16.2977 5.74088L17.6879 5.74153C17.4777 4.56288 17.0052 4.21384 15.8091 4.30707C14.9035 4.47423 14.593 4.8766 14.3544 5.74055Z" fill="#262827"/>
<path d="M54.9185 2.61185C54.9918 2.60531 55.0657 2.60105 55.1394 2.59942C57.6578 2.54479 59.0017 4.43396 58.8486 6.83247C58.8336 7.06637 58.6587 7.17432 58.4424 7.18119C57.8796 7.19853 57.3138 7.19035 56.75 7.1897L53.4798 7.19003C53.8065 9.22477 55.3081 9.14397 56.9412 8.80833C57.5574 8.68173 57.7727 8.27871 58.1476 8.99774C58.5782 9.85678 58.9782 10.1695 57.7835 10.4917C56.1471 10.9334 54.2335 11.0871 52.8346 9.94446C52.0304 9.27908 51.5243 8.31829 51.4282 7.27639C51.1973 4.92498 52.3962 2.83855 54.9185 2.61185ZM53.5421 5.74084H55.4813L56.8819 5.74182C56.6298 4.54355 56.223 4.22787 54.9898 4.30802C54.0932 4.47583 53.774 4.87657 53.5421 5.74084Z" fill="#262827"/>
<path d="M30.0152 0.673135C30.42 0.647227 31.7766 0.494425 31.7659 1.06173C31.7551 1.63313 31.7558 2.24257 31.7561 2.81701C32.2072 2.81374 33.6032 2.73621 33.8963 2.93969C34.0468 3.14251 34.0507 4.13338 33.8937 4.22105C33.5309 4.42485 32.13 4.33882 31.7561 4.33751C31.7548 5.39021 31.7515 6.44651 31.7571 7.49627C31.7802 8.18291 31.7251 8.74918 32.4922 8.96966C33.1192 9.15024 34.0836 8.65137 34.0035 9.62098C33.9924 9.75314 34.0012 9.93077 33.9989 10.0655C34.0038 10.2092 34.0051 10.4267 33.8973 10.5288C33.6276 10.7394 33.0834 10.7182 32.7619 10.7296C31.4949 10.7744 30.15 10.4126 29.8728 8.98798C29.7549 8.38181 29.7989 7.70727 29.7989 7.08278L29.7995 4.33718C29.5067 4.3326 28.8442 4.41733 28.6302 4.23806C28.4004 4.04571 28.3818 3.01525 28.6882 2.87459C28.9387 2.75944 29.5025 2.8144 29.7992 2.81734C29.8061 2.26024 29.7764 1.6894 29.7982 1.13308C29.8077 0.888223 29.8435 0.822077 30.0152 0.673135Z" fill="#262827"/>
<path d="M35.7094 2.83096C36.0719 2.80086 37.1191 2.72562 37.3849 2.97751C37.4272 3.10836 37.4487 3.29614 37.4484 3.44204C37.4435 5.72835 37.4744 8.01956 37.4363 10.3042C37.4344 10.4155 37.2924 10.5241 37.2064 10.5833C36.8442 10.5895 35.7671 10.6834 35.5514 10.4354C35.428 10.0151 35.4778 8.97609 35.4778 8.49586L35.4765 5.62497V3.98507C35.4765 3.71912 35.471 3.4319 35.4876 3.16659C35.4984 2.99551 35.5863 2.92746 35.7094 2.83096Z" fill="#262827"/>
<path d="M36.0516 0.0227914C36.3447 -0.00138344 36.7063 -0.0319709 36.9779 0.082459C37.1799 0.165223 37.3388 0.328198 37.4173 0.532785C37.6147 1.04906 37.371 1.54388 36.8642 1.74114C36.5626 1.75619 36.2594 1.79642 35.9659 1.68454C35.4923 1.50429 35.3451 0.949482 35.5308 0.503997C35.6412 0.238957 35.7884 0.128487 36.0516 0.0227914Z" fill="#262827"/>
</svg>
