<svg preserveAspectRatio="none" overflow="visible" style="display: block;" width="78" height="28" viewBox="0 0 78 28" fill="none" xmlns="http://www.w3.org/2000/svg">
<g id="Leonora" clip-path="url(#clip0_95_6048)">
<path id="Exclude" d="M24.6143 6.79609C27.1562 6.69848 29.298 8.6559 29.4004 11.1701C29.5026 13.6837 27.5269 15.8042 24.9854 15.9094C22.4388 16.0144 20.2894 14.056 20.1865 11.5373C20.084 9.01811 22.0672 6.89403 24.6143 6.79609ZM49.5381 6.79707C52.0837 6.71911 54.2109 8.69655 54.2891 11.2141C54.3676 13.7317 52.3667 15.8355 49.8213 15.9123C47.2768 15.989 45.1513 14.0111 45.0732 11.4943C44.9952 8.97786 46.994 6.87517 49.5381 6.79707ZM1.9668 7.03046C1.91167 9.26681 1.95611 11.6858 1.95898 13.9357L6.29785 13.9426C6.2934 14.5148 6.29417 15.0871 6.30078 15.6594C4.3001 15.7183 2.00394 15.6787 -0.0136719 15.6643C0.0406778 12.8429 -0.0060479 9.86442 -0.0078125 7.03046C0.641159 7.01921 1.31575 7.02976 1.9668 7.03046ZM16.5693 7.03144C16.5472 7.60768 16.5577 8.15205 16.5674 8.72871L11.8828 8.73554L11.8789 10.4504C13.2435 10.4703 14.6426 10.4561 16.0098 10.4572L16.0088 12.1633C14.887 12.1947 13.6296 12.1682 12.4971 12.1682L11.8838 12.1721L11.8721 13.9719L16.6289 13.9807C16.612 14.5437 16.6231 15.0963 16.6309 15.6594C14.5178 15.7257 12.0833 15.6702 9.94727 15.6672L9.9541 7.02265L16.5693 7.03144ZM74.2822 6.96796L76.7041 12.6428C77.0729 13.4993 77.6112 14.8513 78.0391 15.6506C77.4242 15.6946 76.5508 15.6741 75.9268 15.6623C75.7653 15.137 75.3945 14.2906 75.1797 13.7561L74.3789 13.7512L71.5352 13.7482C71.2604 14.3476 70.9894 15.0478 70.7354 15.6633C70.1266 15.686 69.3193 15.6789 68.7109 15.6545C69.1824 14.7379 69.7019 13.3889 70.1191 12.4182C70.911 10.6082 71.6896 8.79216 72.4541 6.97089C72.9535 6.93193 73.7714 6.95326 74.2822 6.96796ZM35.1445 7.03437C35.7607 7.74236 36.3141 8.58222 36.9121 9.31269C37.6929 10.2667 38.3953 11.3309 39.2061 12.259L39.1875 7.03046L41.1543 7.02656C41.1428 7.95419 41.2317 15.3642 41.1338 15.6467L41.0283 15.6682C40.4995 15.6725 39.9712 15.6718 39.4424 15.6652C38.062 13.9893 36.6619 12.0062 35.2822 10.2697C35.2986 11.9964 35.2281 13.9688 35.3125 15.6594C34.6513 15.6733 33.9894 15.6757 33.3281 15.6652C33.3804 12.833 33.3355 9.86714 33.333 7.02851C33.9368 7.02262 34.5408 7.02464 35.1445 7.03437ZM58.2168 7.03046C59.5384 7.02632 62.4802 6.87552 63.6084 7.22089C64.3164 7.43784 64.9174 7.86356 65.2598 8.52753C65.6122 9.2118 65.643 10.2282 65.3916 10.9475C65.0925 11.8035 64.4728 12.2269 63.6895 12.6096C64.2699 13.3486 65.2669 15.0457 65.8682 15.6428C65.5489 15.6693 65.1859 15.6652 64.8613 15.6691C64.4076 15.6704 63.9538 15.6686 63.5 15.6643C62.9419 14.768 62.2648 13.8117 61.6631 12.9377C61.1934 12.9185 60.6492 12.9315 60.1738 12.9328C60.1734 13.8395 60.1647 14.7574 60.2021 15.6623C59.5378 15.6736 58.8724 15.6737 58.208 15.6633C58.287 12.9078 58.219 9.81612 58.2168 7.03046ZM26.9365 9.77558C26.3624 9.01239 25.4175 8.61314 24.4629 8.72968C23.008 8.90763 21.9691 10.2106 22.1338 11.6516C22.2988 13.0923 23.6068 14.1343 25.0654 13.9855C26.022 13.8882 26.8522 13.289 27.2393 12.4182C27.626 11.5474 27.5104 10.5386 26.9365 9.77558ZM49.3789 8.72578C47.911 8.89178 46.8569 10.2038 47.0254 11.6555C47.1941 13.1073 48.5213 14.149 49.9893 13.9816C51.4555 13.8141 52.5077 12.5026 52.3398 11.0519C52.1713 9.60139 50.8453 8.56014 49.3789 8.72578ZM73.3066 9.36933C72.9524 10.2552 72.5915 11.1388 72.2236 12.0187L73.3408 12.0256L74.4629 12.0168C74.2992 11.6185 73.5022 9.59884 73.3066 9.36933ZM63.5576 9.81953C63.44 8.42813 61.2126 8.76217 60.1777 8.7746L60.1768 11.215C61.0956 11.222 62.4578 11.3709 63.1836 10.885C63.4893 10.5415 63.5973 10.2908 63.5576 9.81953ZM28.0801 0.0607376C28.8058 0.00170231 29.0795 0.0902172 29.6797 0.468941C29.5919 0.560912 29.478 0.666177 29.3848 0.75605C28.5378 0.250545 27.5482 0.218335 27.2256 1.32343C27.1197 1.69253 27.1679 2.08892 27.3604 2.42207C27.828 3.24239 28.6636 3.11064 29.3721 2.71503L29.3779 1.92988L28.9404 1.91523C28.7608 1.91893 28.4825 1.95208 28.3535 1.8371C28.3295 1.72444 28.3414 1.72743 28.3896 1.61933C28.6407 1.54495 29.4171 1.57454 29.7246 1.57832C29.7204 2.02604 29.7243 2.47443 29.7354 2.92207C27.0848 4.82111 25.4554 0.712608 28.0801 0.0607376ZM38.0059 0.0490189C38.2626 0.137072 38.2218 0.165951 38.2227 0.394722C38.195 0.984689 38.3801 2.49219 37.8984 2.98554C37.2233 3.67628 35.7041 3.47714 35.5518 2.38496C35.4636 1.7532 35.5096 0.797899 35.5098 0.0851517C35.6824 0.0763861 35.698 0.0738142 35.8662 0.100777C36.1901 0.720332 35.1908 3.3088 37.1211 2.98554C38.3643 2.77724 37.5724 0.620642 37.9023 0.0734329L38.0059 0.0490189ZM44.9756 0.0802689C45.8901 -0.128823 46.8017 0.438778 47.0068 1.34492C47.2118 2.25089 46.6322 3.1482 45.7148 3.34492C44.8065 3.53965 43.9094 2.97276 43.7061 2.07539C43.5033 1.17815 44.0697 0.287433 44.9756 0.0802689ZM31.4287 0.0763626C32.3479 0.0593861 33.3796 -0.12268 33.9453 0.715034C33.9959 1.47102 33.9011 1.78321 33.1094 2.01093C33.2793 2.25321 34.0727 3.10436 33.959 3.32343C33.8156 3.36069 33.7259 3.32967 33.5801 3.30195C33.2831 2.94613 32.9245 2.44305 32.6387 2.06464L31.7607 2.05585C31.7619 2.44843 31.7719 2.87005 31.7539 3.25996L31.6855 3.31953C31.5297 3.34936 31.541 3.3508 31.3936 3.29316C31.267 3.03391 31.4015 1.05099 31.3525 0.651558C31.3364 0.521249 31.3338 0.168698 31.4287 0.0763626ZM39.9297 0.0724564C40.6718 0.0671462 42.2081 -0.0779237 42.3643 0.907417C42.4079 1.1971 42.3303 1.49195 42.1494 1.72382C41.8605 2.08819 41.5818 2.1327 41.1592 2.18964L40.3086 2.20136C40.3135 2.50869 40.3853 3.1243 40.2031 3.32246C40.0622 3.33188 40.027 3.34807 39.9014 3.28632C39.8954 3.26632 39.8704 3.19021 39.8721 3.15839C39.8985 2.75548 39.7956 0.242802 39.9297 0.0724564ZM46.6143 1.44453C46.4682 0.757204 45.787 0.315553 45.0918 0.457222C44.3932 0.599755 43.9444 1.27732 44.0908 1.96796C44.2369 2.6586 44.9233 3.10043 45.6211 2.95332C46.3153 2.80676 46.7598 2.13184 46.6143 1.44453ZM40.3213 0.468941C40.2887 0.881155 40.3043 1.39683 40.3057 1.81757C40.7855 1.83487 41.3124 1.90489 41.7168 1.64472C42.6425 0.489348 41.0584 0.451488 40.3213 0.468941ZM31.7627 0.466988C31.7572 0.885577 31.7559 1.30421 31.7578 1.72285C32.2849 1.72609 32.9331 1.79073 33.3799 1.52558C34.1697 0.33831 32.4317 0.45429 31.7627 0.466988Z" fill="#0C1E42"/>
<path id="Ellipse 1 (Stroke)" d="M46.4788 18.4952V17.2767L44.1845 17.2766C43.8977 20.8105 43.6782 20.7207 43.478 21.1999C43.1197 22.0574 42.5946 22.8365 41.9327 23.4928C41.2707 24.1491 40.4849 24.6697 39.62 25.0249C38.7551 25.3801 37.828 25.5629 36.8919 25.5629C35.9557 25.5629 35.0287 25.3801 34.1638 25.0249C33.2989 24.6697 32.5131 24.1491 31.8511 23.4928C31.1892 22.8366 30.3058 21.1999 30.3058 21.1999C30.3058 21.1999 29.5174 19.9575 29.7632 17.2767H27.305V18.4952C27.305 19.7434 27.553 20.9794 28.0348 22.1326C28.5166 23.2857 29.2227 24.3335 30.1129 25.2161C31.0032 26.0987 32.06 26.7988 33.2231 27.2765C34.3862 27.7541 35.6329 28 36.8919 28C38.1509 28 39.3975 27.7541 40.5607 27.2765C41.7238 26.7988 42.7806 26.0987 43.6708 25.2161C44.561 24.3335 45.2672 23.2857 45.749 22.1326C46.2308 20.9794 46.4788 19.7434 46.4788 18.4952Z" fill="url(#paint0_linear_95_6048)"/>
</g>
<defs>
<linearGradient id="paint0_linear_95_6048" x1="41.2756" y1="26.1316" x2="30.2432" y2="21.3921" gradientUnits="userSpaceOnUse">
<stop stop-color="#50B95C"/>
<stop offset="0.657402" stop-color="#369F95"/>
<stop offset="1" stop-color="#235088"/>
</linearGradient>
<clipPath id="clip0_95_6048">
<rect width="78" height="28" fill="white"/>
</clipPath>
</defs>
</svg>
